<svg data-v-423bf9ae="" xmlns="http://www.w3.org/2000/svg" viewBox="0 0 162 90" class="iconLeft"><!----><!----><!----><g data-v-423bf9ae="" id="22c3ef3f-0314-4d0d-a6e8-eac2e9256693" fill="#000000" transform="matrix(5.7471261427876925,0,0,5.7471261427876925,103.16091882151976,13.850573040681152)"><path d="M2.25 10.64L2.25 0.20L1.19 0.20L1.19 10.64ZM9.10 10.64L10.14 10.64L10.14 6.48C10.14 5.64 10.14 5.25 10.05 4.87C9.83 3.81 9.13 3.40 8.11 3.40C7.43 3.40 6.41 3.61 5.70 4.41L5.70 0.20L4.63 0.20L4.63 10.64L5.68 10.64L5.68 6.24C5.68 5.46 5.71 5.17 5.99 4.82C6.40 4.33 7.13 4.13 7.70 4.13C8.41 4.13 8.79 4.42 8.96 4.98C9.06 5.33 9.10 5.85 9.10 6.71Z"></path></g><defs data-v-423bf9ae=""><linearGradient data-v-423bf9ae="" gradientTransform="rotate(25)" id="36ccba17-3139-4387-b57f-bba69433cd97" x1="0%" y1="0%" x2="100%" y2="0%"><stop data-v-423bf9ae="" offset="0%" style="stop-color: rgb(233, 13, 202); stop-opacity: 1;"></stop><stop data-v-423bf9ae="" offset="100%" style="stop-color: rgb(21, 54, 241); stop-opacity: 1;"></stop></linearGradient></defs><g data-v-423bf9ae="" id="9dfceb3f-20a6-4897-84e1-53790a0f42cb" transform="matrix(2.8125,0,0,2.8125,0,1.0090609788894653)" stroke="none" fill="url(#36ccba17-3139-4387-b57f-bba69433cd97)"><path d="M31 .995v30H1v-30h30m1-1H0v32h32v-32z"></path><path d="M16 7.045L24.955 16 16 24.955 7.045 16 16 7.045m0-1.414L5.631 16 16 26.369 26.369 16 16 5.631z"></path><path d="M16 12.538L19.462 16 16 19.462 12.538 16 16 12.538m0-1.414L11.124 16 16 20.876 20.876 16 16 11.124z"></path></g><!----></svg>