<svg data-v-fde0c5aa="" xmlns="http://www.w3.org/2000/svg" viewBox="0 0 300 300" class="iconLeft"><!----><defs data-v-fde0c5aa=""><!----></defs><rect data-v-fde0c5aa="" fill="transparent" x="0" y="0" width="300px" height="300px" class="logo-background-square"></rect><defs data-v-fde0c5aa=""><!----></defs><g data-v-fde0c5aa="" id="7dea4113-ac33-4cbf-a280-d1b6fe035365" fill="#000000" transform="matrix(8.411214418717716,0,0,8.411214418717716,174.71027889566147,104.41121557944604)"><path d="M2.25 10.64L2.25 0.20L1.19 0.20L1.19 10.64ZM9.10 10.64L10.14 10.64L10.14 6.48C10.14 5.64 10.14 5.25 10.05 4.87C9.83 3.81 9.13 3.40 8.11 3.40C7.43 3.40 6.41 3.61 5.70 4.41L5.70 0.20L4.63 0.20L4.63 10.64L5.68 10.64L5.68 6.24C5.68 5.46 5.71 5.17 5.99 4.82C6.40 4.33 7.13 4.13 7.70 4.13C8.41 4.13 8.79 4.42 8.96 4.98C9.06 5.33 9.10 5.85 9.10 6.71Z"></path></g><defs data-v-fde0c5aa=""><linearGradient data-v-fde0c5aa="" gradientTransform="rotate(25)" id="45e37a68-153f-4dbc-a80c-1939c6c53013" x1="0%" y1="0%" x2="100%" y2="0%"><stop data-v-fde0c5aa="" offset="0%" stop-color="#E90DCA" stop-opacity="1"></stop><stop data-v-fde0c5aa="" offset="100%" stop-color="#1536F1" stop-opacity="1"></stop></linearGradient></defs><g data-v-fde0c5aa="" id="9ab554f8-32a4-4e96-a30a-fff79e9573ac" stroke="none" fill="url(#45e37a68-153f-4dbc-a80c-1939c6c53013)" transform="matrix(4.11623826672591,0,0,4.11623826672591,40,84.16076546923445)"><path d="M31 .995v30H1v-30h30m1-1H0v32h32v-32z"></path><path d="M16 7.045L24.955 16 16 24.955 7.045 16 16 7.045m0-1.414L5.631 16 16 26.369 26.369 16 16 5.631z"></path><path d="M16 12.538L19.462 16 16 19.462 12.538 16 16 12.538m0-1.414L11.124 16 16 20.876 20.876 16 16 11.124z"></path></g><!----></svg>