<svg data-v-fde0c5aa="" xmlns="http://www.w3.org/2000/svg" viewBox="0 0 300 300" class="font"><!----><defs data-v-fde0c5aa=""><!----></defs><rect data-v-fde0c5aa="" fill="transparent" x="0" y="0" width="300px" height="300px" class="logo-background-square"></rect><defs data-v-fde0c5aa=""><linearGradient data-v-fde0c5aa="" gradientTransform="rotate(25)" id="add0b422-caf6-4e23-a52d-78a2ddbcf67b" x1="0%" y1="0%" x2="100%" y2="0%"><stop data-v-fde0c5aa="" offset="0%" stop-color="#E90DCA" stop-opacity="1"></stop><stop data-v-fde0c5aa="" offset="100%" stop-color="#1536F1" stop-opacity="1"></stop></linearGradient></defs><g data-v-fde0c5aa="" id="888c5455-7ed8-4eba-be3d-b3ca9e78c718" fill="url(#add0b422-caf6-4e23-a52d-78a2ddbcf67b)" transform="matrix(21.072795856888206,0,0,21.072795856888206,30.622602226299588,35.78544076582053)"><path d="M2.25 10.64L2.25 0.20L1.19 0.20L1.19 10.64ZM9.10 10.64L10.14 10.64L10.14 6.48C10.14 5.64 10.14 5.25 10.05 4.87C9.83 3.81 9.13 3.40 8.11 3.40C7.43 3.40 6.41 3.61 5.70 4.41L5.70 0.20L4.63 0.20L4.63 10.64L5.68 10.64L5.68 6.24C5.68 5.46 5.71 5.17 5.99 4.82C6.40 4.33 7.13 4.13 7.70 4.13C8.41 4.13 8.79 4.42 8.96 4.98C9.06 5.33 9.10 5.85 9.10 6.71Z"></path></g><!----><!----></svg>