<svg data-v-423bf9ae="" xmlns="http://www.w3.org/2000/svg" viewBox="0 0 51.43678336265913 60" class="font"><!----><!----><!----><g data-v-423bf9ae="" id="c6017152-f5dc-41e0-ae9f-f875267e9597" fill="white" transform="matrix(5.7471261427876925,0,0,5.7471261427876925,-6.839081178480242,-1.1494250519702156)"><path d="M2.25 10.64L2.25 0.20L1.19 0.20L1.19 10.64ZM9.10 10.64L10.14 10.64L10.14 6.48C10.14 5.64 10.14 5.25 10.05 4.87C9.83 3.81 9.13 3.40 8.11 3.40C7.43 3.40 6.41 3.61 5.70 4.41L5.70 0.20L4.63 0.20L4.63 10.64L5.68 10.64L5.68 6.24C5.68 5.46 5.71 5.17 5.99 4.82C6.40 4.33 7.13 4.13 7.70 4.13C8.41 4.13 8.79 4.42 8.96 4.98C9.06 5.33 9.10 5.85 9.10 6.71Z"></path></g><!----><!----></svg>